<svg fill="white" role="img" viewBox="0 0 132 132" xmlns="http://www.w3.org/2000/svg" class="css-19o308k"><title>chat with us</title><circle cx="66" cy="66" r="66"></circle><path d="M104.258 85.0609C102.41 81.8791 101.061 79.7105 99.9076 77.4468C99.6174 76.877 99.6501 75.6423 100.051 75.3257C114.144 64.142 111.527 43.2707 91.6816 35.1461C77.838 29.4791 61.0385 33.1556 52.3831 43.6071C42.7098 55.2933 46.6552 71.3168 61.0957 78.8201C69.0723 82.9635 77.4946 83.8064 86.3175 82.0058C87.9284 81.6773 89.7437 81.9147 91.3913 82.2313C95.3899 82.9951 99.3393 83.9607 104.258 85.0609Z" fill="#0E74E1"></path><path d="M27.0118 100.521C28.8597 97.3395 30.2089 95.1708 31.3619 92.9072C31.6522 92.3373 31.6195 91.1026 31.2188 90.786C17.1258 79.6024 19.7424 58.7311 39.5879 50.6065C53.4315 44.9395 70.2311 48.6159 78.8864 59.0674C88.5597 70.7537 84.6143 86.7772 70.1738 94.2804C62.1972 98.4238 53.7749 99.2668 44.952 97.4661C43.3411 97.1377 41.5259 97.3751 39.8782 97.6917C35.8797 98.4555 31.9302 99.4211 27.0118 100.521Z" fill="#00A832"></path><g clip-path="url(#serviceIconChatClipPath)"><path d="M62.831 78.423L62.8641 69.7201C62.8518 69.467 62.8446 69.3829 62.8183 69.244V69.2426C62.5766 67.6507 61.263 66.5054 58.7437 66.5054C57.4605 66.5054 56.2667 66.8823 55.2035 67.5567C54.6666 66.8823 53.6196 66.5054 52.338 66.5054C51.0137 66.5054 49.8931 66.8029 48.7816 67.4841V66.729H43.9971L43.999 69.1926C44.7127 69.1926 45.0879 69.6338 45.0891 70.2342L45.0877 78.4954C45.0877 79.171 44.7191 79.5944 44.0055 79.5934L44.0066 81.8826L49.9503 81.8816L49.9493 79.5932C49.347 79.5932 49.0338 79.17 49.0348 78.4944L49.0305 70.8731C49.0305 70.0598 49.6612 69.6885 50.5097 69.6893C51.3288 69.6893 51.992 70.0453 51.992 70.8731L51.9984 81.8838H56.8571L56.8553 79.5932C56.253 79.5932 55.94 79.1698 55.9408 78.4944L55.9353 70.8729C55.9353 70.0241 56.5949 69.6881 57.4129 69.6887C58.2309 69.6893 58.8937 70.042 58.8953 70.8727C58.8953 71.1267 58.897 73.4734 58.8984 75.9353C58.8906 78.8252 58.8826 81.881 58.8826 81.881H58.9021V81.8832H60.0138L63.7282 81.8905L63.736 79.6059C63.0457 79.597 62.8206 79.0896 62.831 78.423Z" fill="white"></path></g><defs><clipPath id="serviceIconChatClipPath"><rect fill="white" height="15.3861" transform="translate(43.9971 66.5053)" width="19.7381"></rect></clipPath></defs></svg>