<svg fill="white" role="img" viewBox="0 0 132 132" xmlns="http://www.w3.org/2000/svg" class="css-19o308k"><title>text us</title><circle cx="66" cy="66" r="66"></circle><path d="M48.9731 102.727C47.5506 102.287 46.2132 101.736 45.2638 100.544C44.5083 99.5917 44.0693 98.5454 43.9706 97.3631C43.9502 97.1072 43.9536 96.8481 43.9536 96.5922C43.9536 74.3616 43.957 52.131 43.9502 29.8972C43.9502 27.3803 45.012 25.4563 47.4179 24.3582C48.1938 24.0051 49.1229 23.801 49.9838 23.7978C61.6224 23.7622 73.2609 23.7622 84.8994 23.7816C88.3535 23.7881 90.9194 26.3147 90.9262 29.664C90.9433 37.0137 90.933 44.3667 90.933 51.7164C90.933 66.5454 90.8888 81.3777 90.9671 96.2067C90.9841 99.4394 89.1158 102.024 86.0394 102.637C85.9918 102.646 85.9544 102.695 85.9101 102.727C73.6012 102.727 61.2855 102.727 48.9731 102.727ZM48.5443 33.5154C48.5443 50.5211 48.5443 67.4654 48.5443 84.429C61.1766 84.429 73.7475 84.429 86.3627 84.429C86.3627 67.4394 86.3627 50.4952 86.3627 33.5154C73.7441 33.5154 61.1732 33.5154 48.5443 33.5154ZM67.4484 27.2961C64.7498 27.2961 62.0546 27.2929 59.3559 27.2961C58.4303 27.2961 58.0559 27.6913 58.0525 28.6436C58.0525 29.5927 58.4337 30.0106 59.3525 30.0106C64.7464 30.0138 70.1437 30.0138 75.5375 30.0106C76.4564 30.0106 76.8715 29.5927 76.8307 28.6469C76.7865 27.6848 76.4768 27.2573 75.5409 27.2767C72.8423 27.3285 70.1437 27.2961 67.4484 27.2961ZM67.4722 89.7542C65.3351 89.7478 63.5927 91.3836 63.6064 93.3919C63.62 95.3678 65.3419 97.0165 67.4144 97.0262C69.5277 97.0392 71.2871 95.371 71.2769 93.3692C71.2667 91.3803 69.5651 89.764 67.4722 89.7542Z" fill="#5A1F06"></path><rect fill="#F3F6FA" height="52.8" width="41.6308" x="46.6406" y="33.5077"></rect><ellipse cx="67.51" cy="60.4153" fill="#00A832" rx="17.427" ry="16.7538"></ellipse><g clip-path="url(#serviceIconTextClipPath)"><path d="M74.1507 63.4823L74.1752 57.1646C74.1661 56.9809 74.1608 56.9198 74.1413 56.819V56.818C73.9624 55.6624 72.9896 54.831 71.124 54.831C70.1739 54.831 69.2898 55.1046 68.5025 55.5941C68.1049 55.1046 67.3296 54.831 66.3806 54.831C65.3999 54.831 64.5702 55.047 63.7471 55.5414V54.9933H60.2041L60.2055 56.7817C60.734 56.7817 61.0119 57.102 61.0128 57.5378L61.0117 63.5349C61.0117 64.0253 60.7388 64.3327 60.2103 64.332L60.2112 65.9937L64.6125 65.993L64.6118 64.3318C64.1658 64.3318 63.9338 64.0246 63.9345 63.5342L63.9314 58.0016C63.9314 57.4112 64.3984 57.1417 65.0267 57.1423C65.6333 57.1423 66.1244 57.4007 66.1244 58.0016L66.1291 65.9946H69.727L69.7257 64.3318C69.2797 64.3318 69.0479 64.0244 69.0485 63.5342L69.0444 58.0014C69.0444 57.3853 69.5329 57.1414 70.1386 57.1418C70.7443 57.1423 71.2351 57.3983 71.2363 58.0013C71.2363 58.1858 71.2376 59.8893 71.2386 61.6764C71.2328 63.7743 71.2269 65.9926 71.2269 65.9926H71.2413V65.9942H72.0646L74.8151 65.9995L74.8208 64.3411C74.3097 64.3346 74.143 63.9663 74.1507 63.4823Z" fill="white"></path></g><defs><clipPath id="serviceIconTextClipPath"><rect fill="white" height="11.1692" transform="translate(60.2041 54.8309)" width="14.6162"></rect></clipPath></defs></svg>